<svg id="Capa_1" data-name="Capa 1" xmlns="http://www.w3.org/2000/svg" viewBox="0 0 100 100"><defs><style>.cls-1{fill:#878787;}</style></defs><title>instagram</title><path class="cls-1" d="M50,30.734c6.275,0,7.018.024,9.5.137a13.047,13.047,0,0,1,4.364.809,7.784,7.784,0,0,1,4.46,4.46,13.047,13.047,0,0,1,.809,4.364c.113,2.478.137,3.221.137,9.5s-.024,7.018-.137,9.5a13.041,13.041,0,0,1-.809,4.364,7.784,7.784,0,0,1-4.46,4.46,13.047,13.047,0,0,1-4.364.809c-2.478.113-3.221.137-9.5.137s-7.018-.024-9.5-.137a13.041,13.041,0,0,1-4.364-.809,7.784,7.784,0,0,1-4.46-4.46,13.041,13.041,0,0,1-.809-4.364c-.113-2.478-.137-3.221-.137-9.5s.024-7.018.137-9.5a13.047,13.047,0,0,1,.809-4.364,7.784,7.784,0,0,1,4.46-4.46,13.041,13.041,0,0,1,4.364-.809c2.478-.113,3.221-.137,9.5-.137M50,26.5c-6.382,0-7.182.027-9.689.141a17.262,17.262,0,0,0-5.7,1.093,12.008,12.008,0,0,0-6.873,6.873,17.262,17.262,0,0,0-1.093,5.7C26.527,42.818,26.5,43.618,26.5,50s.027,7.183.141,9.689a17.262,17.262,0,0,0,1.093,5.7,12.008,12.008,0,0,0,6.873,6.873,17.262,17.262,0,0,0,5.7,1.093c2.507.114,3.307.141,9.689.141s7.182-.027,9.689-.141a17.262,17.262,0,0,0,5.7-1.093,12.008,12.008,0,0,0,6.873-6.873,17.262,17.262,0,0,0,1.093-5.7c.114-2.506.141-3.307.141-9.689s-.027-7.182-.141-9.689a17.262,17.262,0,0,0-1.093-5.7,12.008,12.008,0,0,0-6.873-6.873,17.262,17.262,0,0,0-5.7-1.093C57.182,26.527,56.382,26.5,50,26.5Zm0,11.432A12.068,12.068,0,1,0,62.068,50,12.068,12.068,0,0,0,50,37.932Zm0,19.9A7.833,7.833,0,1,1,57.833,50,7.833,7.833,0,0,1,50,57.833ZM65.364,37.456a2.82,2.82,0,1,1-2.82-2.82A2.82,2.82,0,0,1,65.364,37.456Z"/></svg>