<svg id="Capa_1" data-name="Capa 1" xmlns="http://www.w3.org/2000/svg" viewBox="0 0 150 150"><defs><style>.cls-1,.cls-2,.cls-3,.cls-4,.cls-5,.cls-6{fill:none;stroke-linecap:round;stroke-miterlimit:10;}.cls-1,.cls-3{stroke:#dfcfbf;}.cls-1,.cls-2{stroke-width:2.762px;}.cls-2,.cls-4,.cls-5,.cls-6{stroke:#878787;}.cls-3,.cls-4{stroke-width:2.704px;}.cls-5{stroke-width:0.921px;}.cls-6{stroke-width:1.381px;}.cls-7{font-size:11.047px;}.cls-7,.cls-8,.cls-9{fill:#dfcfbf;font-family:MyriadPro-Regular, Myriad Pro;}.cls-8{font-size:6.444px;}.cls-9{font-size:8.285px;}</style></defs><title>newsletter</title><path class="cls-1" d="M84.318,68.913l5.139,7.775a2.438,2.438,0,0,1-1.033,3.566L68.165,89.375a2.435,2.435,0,0,1-3.033-.878l-3.176-4.805-3.175-4.8a2.436,2.436,0,0,1,.381-3.135L75.5,60.69a2.437,2.437,0,0,1,3.685.448Z"/><path class="cls-1" d="M82.028,83.134A6.092,6.092,0,1,1,71,88.1"/><line class="cls-2" x1="87.54" y1="66.054" x2="98.721" y2="58.664"/><line class="cls-2" x1="84.513" y1="62.578" x2="90.474" y2="50.606"/><line class="cls-2" x1="89.551" y1="70.201" x2="102.902" y2="69.41"/><line class="cls-3" x1="67.199" y1="98.935" x2="40.038" y2="119.81"/><line class="cls-3" x1="81.007" y1="98.935" x2="108.353" y2="119.81"/><polyline class="cls-4" points="108.353 78.061 74.195 103.869 40.038 78.061"/><path class="cls-4" d="M93.9,77.3h13.7a1.518,1.518,0,0,1,1.518,1.518v40.23a1.518,1.518,0,0,1-1.518,1.519H40.8a1.518,1.518,0,0,1-1.518-1.519V78.82A1.518,1.518,0,0,1,40.8,77.3H53.7"/><circle class="cls-5" cx="56.152" cy="68.557" r="0.921"/><circle class="cls-5" cx="27.615" cy="47.384" r="0.921"/><circle class="cls-5" cx="94.816" cy="43.701" r="0.921"/><circle class="cls-5" cx="124.274" cy="76.842" r="0.921"/><circle class="cls-6" cx="113.688" cy="57.97" r="1.381"/><text class="cls-7" transform="translate(64.075 38.678)">*</text><text class="cls-7" transform="translate(22.649 81.023)">*</text><text class="cls-8" transform="translate(52.108 53.406)">*</text><text class="cls-9" transform="translate(123.912 38.678)">*</text></svg>