<svg id="Capa_1" data-name="Capa 1" xmlns="http://www.w3.org/2000/svg" xmlns:xlink="http://www.w3.org/1999/xlink" viewBox="0 0 641 481"><defs><style>:root{--R\=249-G\=248-B\=113:#f3eb75;--R\=155-G\=62-B\=99:#9c3e63;--R\=144-G\=233-B\=158:#9bcc97;--R\=88-G\=203-B\=192:#62c0ba;--R\=193-G\=243-B\=133:#c1d780;--R\=91-G\=143-B\=198:#5b8fc6;--R\=123-G\=117-B\=180:#7b75b4;}.cls-1,.cls-4{stroke:var(--R\=249-G\=248-B\=113, #f3eb75);}.cls-1,.cls-2,.cls-3,.cls-4,.cls-5,.cls-6,.cls-7,.cls-8{stroke-miterlimit:10;}.cls-1{opacity:0.55;fill:url(#Degradado_sin_nombre_59);}.cls-2,.cls-3,.cls-4,.cls-5,.cls-6,.cls-7,.cls-8{fill:none;}.cls-2{stroke:var(--R\=155-G\=62-B\=99, #9c3e63);}.cls-3{stroke:var(--R\=144-G\=233-B\=158, #9bcc97);}.cls-5{stroke:var(--R\=88-G\=203-B\=192, #62c0ba);}.cls-6{stroke:var(--R\=193-G\=243-B\=133, #c1d780);}.cls-7{stroke:var(--R\=91-G\=143-B\=198, #5b8fc6);}.cls-8{stroke:var(--R\=123-G\=117-B\=180, #7b75b4);}</style><linearGradient id="Degradado_sin_nombre_59" y1="240" x2="640" y2="240" gradientUnits="userSpaceOnUse"><stop offset="0" stop-color="#f3eb75"/><stop offset="0.1" stop-color="#c1d780"/><stop offset="0.23" stop-color="#9bcc97"/><stop offset="0.35" stop-color="#7ac4aa"/><stop offset="0.48" stop-color="#62c0ba"/><stop offset="0.61" stop-color="#5b8fc6"/><stop offset="0.73" stop-color="#7b75b4"/><stop offset="0.87" stop-color="#945892"/><stop offset="1" stop-color="#9c3e63"/></linearGradient></defs><title>plantilla-frente</title><path class="cls-1" d="M0,0V480H640V0ZM399.5,290.5c-1-4,0-22-4-21s-2,11-5,8-4.24-22.22-7-28c-11-23-30-93-30-84s0,25,2,33c1.41,5.66,7,28,9,47s-4,79-4,87-7,85-5,90,19,24,16,30-11,4-18,0-18.06-16.52-17-25c1-8,0-13,0-23s-22-139-27-139-27,129-27,139-1,15,0,23c1.06,8.48-10,21-17,25s-15,6-18,0,14-25,16-30-5-82-5-90-6-68-4-87,7.59-41.34,9-47c2-8,2-24,2-33s-19,61-30,84c-2.76,5.78-4,25-7,28s-1-7-5-8-3,17-4,21-9-13-9-21,8-17,10-23,11-44,15-61,17-62,20-67,31-10,35-11,5-4.88,5-9-5-11-8-19-2-19,1-30,11-17,21-17,18,6,21,17,4,22,1,30-8,15-8,19,1,8,5,9,32,6,35,11,16,50,20,67,13,55,15,61,10,15,10,23S400.5,294.5,399.5,290.5Z" transform="translate(0.5 0.5)"/><line class="cls-2" x1="264.5" y1="196" x2="355.5" y2="196"/><line class="cls-3" x1="264.5" y1="153" x2="355.5" y2="153"/><line class="cls-4" x1="310" y1="118.5" x2="310" y2="266.5"/><line class="cls-5" x1="256.5" y1="241" x2="364.5" y2="241"/><path class="cls-6" d="M326.5,106.5c-2,7-9,11-17,11s-15-4-17-11" transform="translate(0.5 0.5)"/><line class="cls-7" x1="259" y1="117" x2="265" y2="196"/><polyline class="cls-8" points="293 107 283.37 153 283.37 196"/><line class="cls-7" x1="361.37" y1="117.5" x2="355.37" y2="196.5"/><polyline class="cls-8" points="327.37 107.5 337 153.5 337 196.5"/></svg>