<svg id="Capa_3" data-name="Capa 3" xmlns="http://www.w3.org/2000/svg" xmlns:xlink="http://www.w3.org/1999/xlink" viewBox="0 0 641 481"><defs><style>:root{--R\=249-G\=248-B\=113:#f3eb75;--R\=193-G\=243-B\=133:#c1d780;--R\=123-G\=117-B\=180:#7b75b4;--R\=155-G\=62-B\=99:#9c3e63;--R\=88-G\=203-B\=192:#62c0ba;--R\=144-G\=233-B\=158:#9bcc97;--R\=91-G\=143-B\=198:#5b8fc6;}.cls-1,.cls-3{stroke:var(--R\=249-G\=248-B\=113, #f3eb75);}.cls-1,.cls-2,.cls-3,.cls-4,.cls-5,.cls-6,.cls-7,.cls-8{stroke-miterlimit:10;}.cls-1{opacity:0.55;fill:url(#Degradado_sin_nombre_59);}.cls-2,.cls-3,.cls-4,.cls-5,.cls-6,.cls-7,.cls-8{fill:none;}.cls-2{stroke:var(--R\=193-G\=243-B\=133, #c1d780);}.cls-4{stroke:var(--R\=123-G\=117-B\=180, #7b75b4);}.cls-5{stroke:var(--R\=155-G\=62-B\=99, #9c3e63);}.cls-6{stroke:var(--R\=88-G\=203-B\=192, #62c0ba);}.cls-7{stroke:var(--R\=144-G\=233-B\=158, #9bcc97);}.cls-8{stroke:var(--R\=91-G\=143-B\=198, #5b8fc6);}</style><linearGradient id="Degradado_sin_nombre_59" y1="240" x2="640" y2="240" gradientUnits="userSpaceOnUse"><stop offset="0" stop-color="#f3eb75"/><stop offset="0.1" stop-color="#c1d780"/><stop offset="0.23" stop-color="#9bcc97"/><stop offset="0.35" stop-color="#7ac4aa"/><stop offset="0.48" stop-color="#62c0ba"/><stop offset="0.61" stop-color="#5b8fc6"/><stop offset="0.73" stop-color="#7b75b4"/><stop offset="0.87" stop-color="#945892"/><stop offset="1" stop-color="#9c3e63"/></linearGradient></defs><title>plantilla-perfil</title><path class="cls-1" d="M0,0V480H640V0ZM353.5,440.5c1.27,13.94-64,7-66,3s3-18,3-25-7-44-7-57,5-23,8-35-14-76-15-92,8-29,10-40-6-53-5-69,11-26,15-30,1.57-8.71-1-13c-3-5-10-20-7-32s13-18,24-18c4,0,15,2,17,4,6,6,5.55,18.25,9,24,6,10,6,14,2,16-2.53,1.26.77,9.84-2,14-4,6-14,0-15,4s30,39,31,46-2,54-2,60-2,27-4,35-2,22-4,35-8,54-13,64-15,84-16,88S352.5,429.5,353.5,440.5Z" transform="translate(0.5 0.5)"/><path class="cls-2" d="M297.85,93.72c1.65,2.78,4.65,4.78,8.65,5.78,4.95,1.24,15,3,19,0" transform="translate(0.5 0.5)"/><line class="cls-3" x1="309" y1="100" x2="304" y2="109"/><polyline class="cls-4" points="309 100 347 142 347 185"/><line class="cls-5" x1="287" y1="185" x2="354" y2="185"/><line class="cls-6" x1="277" y1="229" x2="350" y2="229"/><line class="cls-7" x1="355.5" y1="142" x2="284.5" y2="142"/><line class="cls-8" x1="304" y1="110" x2="316" y2="185"/></svg>