<svg id="Capa_4" data-name="Capa 4" xmlns="http://www.w3.org/2000/svg" xmlns:xlink="http://www.w3.org/1999/xlink" viewBox="0 0 641 481"><defs><style>:root{--R\=249-G\=248-B\=113:#f3eb75;--R\=155-G\=62-B\=99:#9c3e63;--R\=144-G\=233-B\=158:#9bcc97;--R\=88-G\=203-B\=192:#62c0ba;--R\=193-G\=243-B\=133:#c1d780;--R\=91-G\=143-B\=198:#5b8fc6;--R\=123-G\=117-B\=180:#7b75b4;}.cls-1,.cls-4{stroke:var(--R\=249-G\=248-B\=113, #f3eb75);}.cls-1,.cls-2,.cls-3,.cls-4,.cls-5,.cls-6,.cls-7,.cls-8{stroke-miterlimit:10;}.cls-1{opacity:0.55;fill:url(#Degradado_sin_nombre_59);}.cls-2,.cls-3,.cls-4,.cls-5,.cls-6,.cls-7,.cls-8{fill:none;}.cls-2{stroke:var(--R\=155-G\=62-B\=99, #9c3e63);}.cls-2,.cls-3,.cls-4,.cls-5,.cls-7,.cls-8{stroke-linecap:round;}.cls-3{stroke:var(--R\=144-G\=233-B\=158, #9bcc97);}.cls-5{stroke:var(--R\=88-G\=203-B\=192, #62c0ba);}.cls-6{stroke:var(--R\=193-G\=243-B\=133, #c1d780);}.cls-7{stroke:var(--R\=91-G\=143-B\=198, #5b8fc6);}.cls-8{stroke:var(--R\=123-G\=117-B\=180, #7b75b4);}</style><linearGradient id="Degradado_sin_nombre_59" y1="240" x2="640" y2="240" gradientUnits="userSpaceOnUse"><stop offset="0" stop-color="#f3eb75"/><stop offset="0.1" stop-color="#c1d780"/><stop offset="0.23" stop-color="#9bcc97"/><stop offset="0.35" stop-color="#7ac4aa"/><stop offset="0.48" stop-color="#62c0ba"/><stop offset="0.61" stop-color="#5b8fc6"/><stop offset="0.73" stop-color="#7b75b4"/><stop offset="0.87" stop-color="#945892"/><stop offset="1" stop-color="#9c3e63"/></linearGradient></defs><title>plantilla-frente</title><path class="cls-1" d="M0,0V480H640V0ZM444.61,273.5c-2,0-3-6-4-6s-3-1-3-2-1-9-2-10-3-9-4-8-1,11-3,11-3-2-3-4,1-8,0-10-3-8-3-9,2-5,1-6-8-11-12-14-15-14-17-17-9-13-11-15-10-15-11-17-5-13-6-16-2-11-2-9-2,14-2,17,2,21,3,25,6,16,8,21,3,19,4,23,2,27,1,33-9,34-10,39-8,44-8,46,2.75,22,3,26c1,16-6,46-7,51s-3,23-3,25,4,8,6,10,8,6,6,9-4,2-4,2-7,2-7,1-3,0-4-1-2,1-4,1a7.64,7.64,0,0,1-5-2c-1-1-3-7-4-7s-5-4-5-7,3-8,3-10-8.5-57-9-62c-1-10,1-22,0-25s-4-10-4-17,0-82-2-82H318.5c-2,0-2,75-2,82s-3,14-4,17,1,15,0,25c-.5,5-9,60-9,62s3,7,3,10-4,7-5,7-3,6-4,7a7.64,7.64,0,0,1-5,2c-2,0-3-2-4-1s-4,0-4,1-7-1-7-1-2,1-4-2,4-7,6-9,6-8,6-10-2-20-3-25-8-35-7-51c.25-4,3-24,3-26s-7-41-8-46-9-33-10-39,0-29,1-33,2-18,4-23,7-17,8-21,3-22,3-25-2-15-2-17-1,6-2,9-5,14-6,16-9,15-11,17-9,12-11,15-13,14-17,17-11,13-12,14,1,5,1,6-2,7-3,9,0,8,0,10-1,4-3,4-2-10-3-11-3,7-4,8-2,9-2,10-2,2-3,2-2,6-4,6,0-7,0-8,1-12,1-13,2-7,3-9a102.6,102.6,0,0,0,4-14,13.38,13.38,0,0,1,1-5,68.9,68.9,0,0,1,3-8c1-2,14-30,16-35s7-11,9-13,11-20,13-23,7-18,12-28,14-19,15-20,32-15,33-16,1-14,1-16-1-2-2-4-1-6-1-7-2,1-4-1-3-7-2-9,2-1,3-1,0-3,0-8,1-9,4-13,11-7,16-7h.11c5,0,13,3,16,7s4,8,4,13-1,8,0,8,2-1,3,1,0,7-2,9-4,0-4,1,0,5-1,7-2,2-2,4,0,15,1,16,32,15,33,16,10,10,15,20,10,25,12,28,11,21,13,23,7,8,9,13,15,33,16,35a68.9,68.9,0,0,1,3,8,13.38,13.38,0,0,1,1,5,102.6,102.6,0,0,0,4,14c1,2,3,8,3,9s1,12,1,13S446.61,273.5,444.61,273.5Z" transform="translate(0.5 0.5)"/><line class="cls-2" x1="274.39" y1="188.54" x2="365.39" y2="188.54"/><line class="cls-3" x1="275.5" y1="142" x2="366.5" y2="142"/><line class="cls-4" x1="320" y1="94.5" x2="319.89" y2="259.04"/><line class="cls-5" x1="261.5" y1="236" x2="378.5" y2="236"/><path class="cls-6" d="M336.39,83c-2,7-9,11-17,11s-15-4-17-11" transform="translate(0.5 0.5)"/><line class="cls-7" x1="275" y1="97.5" x2="274.89" y2="188.54"/><line class="cls-7" x1="365" y1="97.5" x2="365" y2="188.54"/><polyline class="cls-8" points="303 84 293 142 293.27 188.54"/><polyline class="cls-8" points="337 84 347 142 346.89 189.04"/></svg>