<svg id="Capa_5" data-name="Capa 5" xmlns="http://www.w3.org/2000/svg" xmlns:xlink="http://www.w3.org/1999/xlink" viewBox="0 0 641 481"><defs><style>:root{--R\=249-G\=248-B\=113:#f3eb75;--R\=193-G\=243-B\=133:#c1d780;--R\=123-G\=117-B\=180:#7b75b4;--R\=155-G\=62-B\=99:#9c3e63;--R\=88-G\=203-B\=192:#62c0ba;--R\=144-G\=233-B\=158:#9bcc97;--R\=91-G\=143-B\=198:#5b8fc6;}.cls-1,.cls-2{stroke:var(--R\=249-G\=248-B\=113, #f3eb75);}.cls-1,.cls-2,.cls-3,.cls-4,.cls-5,.cls-6,.cls-7,.cls-8{stroke-miterlimit:10;}.cls-1{opacity:0.55;fill:url(#Degradado_sin_nombre_59);}.cls-2,.cls-3,.cls-4,.cls-5,.cls-6,.cls-7,.cls-8{fill:none;}.cls-3{stroke:var(--R\=193-G\=243-B\=133, #c1d780);}.cls-3,.cls-4,.cls-5,.cls-6,.cls-7,.cls-8{stroke-linecap:round;}.cls-4{stroke:var(--R\=123-G\=117-B\=180, #7b75b4);}.cls-5{stroke:var(--R\=155-G\=62-B\=99, #9c3e63);}.cls-6{stroke:var(--R\=88-G\=203-B\=192, #62c0ba);}.cls-7{stroke:var(--R\=144-G\=233-B\=158, #9bcc97);}.cls-8{stroke:var(--R\=91-G\=143-B\=198, #5b8fc6);}</style><linearGradient id="Degradado_sin_nombre_59" y1="240" x2="640" y2="240" gradientUnits="userSpaceOnUse"><stop offset="0" stop-color="#f3eb75"/><stop offset="0.1" stop-color="#c1d780"/><stop offset="0.23" stop-color="#9bcc97"/><stop offset="0.35" stop-color="#7ac4aa"/><stop offset="0.48" stop-color="#62c0ba"/><stop offset="0.61" stop-color="#5b8fc6"/><stop offset="0.73" stop-color="#7b75b4"/><stop offset="0.87" stop-color="#945892"/><stop offset="1" stop-color="#9c3e63"/></linearGradient></defs><title>plantilla-perfil</title><path class="cls-1" d="M0,0V480H640V0ZM356.5,264.5c-6,9-4,29-5,41s-3,35-2,42,6,22,6,34-9,56-10,60,2,17,1,21-10,5-17,5-30,2-32,2h-13c-2,0-4-1-6-1s-6-2-6-3,3-3,5-3-3-1-3-4c0-1,5-3,6-3s6-2,9-3,29-8,30-11,2-29,2-33-3-46-4-50-5-11-7-17-12-45-14-51-5-34-5-37,2-12,1-15-7-17-8-28c-.27-3,3-16,4-17s-1-12-1-15v-19c0-6-5-14-5-19s4-11,13-20,20-22,21-24-1-11-2-14-1-10-2-11-7,0-9,0-3-6-3-7-3-2-3-3,1-1,1-2,0,0-1-1,1-3,1-4-3-2-3-4,5-6,6-7-1-6,0-10,1.71-7.32,6-11c7-6,17.32-10.52,27-7,11,4,19,13,17,27-1.28,9-10,13-11,29-.44,7,13,15,18,23s8,27,8,35-9,46-10,51,11,36,12,50S362.5,255.5,356.5,264.5Z" transform="translate(0.5 0.5)"/><line class="cls-2" x1="336" y1="89" x2="336" y2="92.5"/><path class="cls-3" d="M345.5,80.5c-1.65,2.78-6.23,6.33-10,8-4.5,2-13,7-19,8" transform="translate(0.5 0.5)"/><polyline class="cls-4" points="336 89 283 140 295.5 185"/><line class="cls-5" x1="357.5" y1="185" x2="288.5" y2="185"/><line class="cls-6" x1="368.5" y1="236" x2="292.5" y2="236"/><line class="cls-7" x1="283.5" y1="140" x2="365.5" y2="140"/><line class="cls-8" x1="336" y1="92" x2="317" y2="185"/></svg>