<svg id="Capa_4" data-name="Capa 4" xmlns="http://www.w3.org/2000/svg" xmlns:xlink="http://www.w3.org/1999/xlink" viewBox="0 0 641 481"><defs><style>:root{--R\=249-G\=248-B\=113:#f3eb75;--R\=193-G\=243-B\=133:#c1d780;--R\=155-G\=62-B\=99:#9c3e63;--R\=144-G\=233-B\=158:#9bcc97;--R\=88-G\=203-B\=192:#62c0ba;--R\=91-G\=143-B\=198:#5b8fc6;--R\=123-G\=117-B\=180:#7b75b4;}.cls-1,.cls-5{stroke:var(--R\=249-G\=248-B\=113, #f3eb75);}.cls-1,.cls-2,.cls-3,.cls-4,.cls-5,.cls-6,.cls-7,.cls-8{stroke-miterlimit:10;}.cls-1{opacity:0.55;fill:url(#Degradado_sin_nombre_59);}.cls-2,.cls-3,.cls-4,.cls-5,.cls-6,.cls-7,.cls-8{fill:none;}.cls-2{stroke:var(--R\=193-G\=243-B\=133, #c1d780);}.cls-3{stroke:var(--R\=155-G\=62-B\=99, #9c3e63);}.cls-3,.cls-4,.cls-5,.cls-6,.cls-7,.cls-8{stroke-linecap:round;}.cls-4{stroke:var(--R\=144-G\=233-B\=158, #9bcc97);}.cls-6{stroke:var(--R\=88-G\=203-B\=192, #62c0ba);}.cls-7{stroke:var(--R\=91-G\=143-B\=198, #5b8fc6);}.cls-8{stroke:var(--R\=123-G\=117-B\=180, #7b75b4);}</style><linearGradient id="Degradado_sin_nombre_59" y1="240" x2="640" y2="240" gradientUnits="userSpaceOnUse"><stop offset="0" stop-color="#f3eb75"/><stop offset="0.1" stop-color="#c1d780"/><stop offset="0.23" stop-color="#9bcc97"/><stop offset="0.35" stop-color="#7ac4aa"/><stop offset="0.48" stop-color="#62c0ba"/><stop offset="0.61" stop-color="#5b8fc6"/><stop offset="0.73" stop-color="#7b75b4"/><stop offset="0.87" stop-color="#945892"/><stop offset="1" stop-color="#9c3e63"/></linearGradient></defs><title>plantilla-frente</title><path class="cls-1" d="M0,0V480H640V0ZM508.15,206.77c-1.73,1-5.6-3.69-6.46-3.19s-3.1.63-3.6-.24-5.37-7.29-6.73-7.66-7.1-6.29-7.47-4.92,4.64,10,2.9,11-3.59-.23-4.59-2-3.14-7.43-5-8.66-6.6-5.43-7.1-6.3-.77-5.33-2.14-5.69-12.42-5.53-17.39-6.13-20-4.62-23.22-6.22-14.3-6.76-17-7.49-16.16-8-18-9.22-10.83-8.76-13.2-10.86-13.78.25-13.78,2.25-2,14-2,17,2,21,3,25,6,16,8,21,3,19,4,23,2,27,1,33-9,34-10,39-8,44-8,46,2.75,22,3,26c1,16-6,46-7,51s-3,23-3,25,4,8,6,10,8,6,6,9-4,2-4,2-7,2-7,1-3,0-4-1-2,1-4,1a7.64,7.64,0,0,1-5-2c-1-1-3-7-4-7s-5-4-5-7,3-8,3-10-8.51-57-9-62c-1-10,1-22,0-25s-4-10-4-17-1.32-81-3.32-81-3.5,74-3.5,81-3,14-4,17,1,15,0,25c-.5,5-9,60-9,62s3,7,3,10-4,7-5,7-3,6-4,7a7.64,7.64,0,0,1-5,2c-2,0-3-2-4-1s-4,0-4,1-7-1-7-1-2,1-4-2,4-7,6-9,6-8,6-10-2-20-3-25-8-35-7-51c.25-4,3-24,3-26s-7-41-8-46-9-33-10-39,0-29,1-33,2-18,4-23,7-17,8-21,3-22,3-25-2-15-2-17-11.42-4.35-13.78-2.25-11.33,9.63-13.2,10.86-15.29,8.49-18,9.22-13.79,5.89-17,7.49-18.26,5.62-23.23,6.22-16,5.76-17.39,6.13-1.63,4.83-2.13,5.69-5.23,5.07-7.1,6.3-4,6.93-5,8.66-2.87,3-4.6,2,3.27-9.66,2.9-11-6.09,4.56-7.46,4.92-6.23,6.8-6.73,7.66-2.73.74-3.6.24-4.73,4.19-6.46,3.19,3.5-6.06,4-6.93,6.86-9.89,7.36-10.75,5.23-5.07,7.1-6.3a102.53,102.53,0,0,0,10.46-10.12,13.19,13.19,0,0,1,3.37-3.83,68.35,68.35,0,0,1,6.6-5.43c1.86-1.23,27.12-19,31.35-22.31s11.57-6,14.3-6.76,19.52-11.82,22.76-13.42,14.87-12.38,24.39-18.25c5.14-3.17,7.14-4.17,8.14-5.17s32-15,33-16,1-14,1-16-1-2-2-4-1-6-1-7-2,1-4-1-3-7-2-9,2-1,3-1,0-3,0-8,1-9,4-13,11-7,16-7h.82c5,0,13,3,16,7s4,8,4,13-1,8,0,8,2-1,3,1,0,7-2,9-4,0-4,1,0,5-1,7-2,2-2,4,0,15,1,16,32,15,33,16,3,2,8.14,5.17c9.51,5.87,21.16,16.65,24.39,18.25s20,12.69,22.76,13.42,10.06,3.43,14.29,6.76,29.49,21.08,31.36,22.31a69.59,69.59,0,0,1,6.6,5.43,13.26,13.26,0,0,1,3.36,3.83,102.72,102.72,0,0,0,10.47,10.12c1.86,1.23,6.59,5.43,7.09,6.3s6.87,9.89,7.37,10.75S509.88,205.77,508.15,206.77Z" transform="translate(0.5 0.5)"/><path class="cls-2" d="M336.39,83c-2,7-9,11-17,11s-15-4-17-11" transform="translate(0.5 0.5)"/><line class="cls-3" x1="274.89" y1="188.54" x2="365.89" y2="188.54"/><line class="cls-4" x1="276" y1="142" x2="367" y2="142"/><line class="cls-5" x1="320.5" y1="94.5" x2="320.39" y2="259.04"/><line class="cls-6" x1="262" y1="236" x2="379" y2="236"/><line class="cls-7" x1="275.5" y1="97.5" x2="275.39" y2="188.54"/><line class="cls-7" x1="365.5" y1="97.5" x2="365.5" y2="188.54"/><polyline class="cls-8" points="303.5 84 293.5 142 293.77 188.54"/><polyline class="cls-8" points="337.5 84 347.5 142 347.39 189.04"/></svg>