<svg id="Capa_5" data-name="Capa 5" xmlns="http://www.w3.org/2000/svg" xmlns:xlink="http://www.w3.org/1999/xlink" viewBox="0 0 641 481"><defs><style>:root{--R\=249-G\=248-B\=113:#f3eb75;--R\=193-G\=243-B\=133:#c1d780;--R\=123-G\=117-B\=180:#7b75b4;--R\=155-G\=62-B\=99:#9c3e63;--R\=88-G\=203-B\=192:#62c0ba;--R\=144-G\=233-B\=158:#9bcc97;--R\=91-G\=143-B\=198:#5b8fc6;}.cls-1,.cls-2{stroke:var(--R\=249-G\=248-B\=113, #f3eb75);}.cls-1,.cls-2,.cls-3,.cls-4,.cls-5,.cls-6,.cls-7,.cls-8{stroke-miterlimit:10;}.cls-1{opacity:0.55;fill:url(#Degradado_sin_nombre_59);}.cls-2,.cls-3,.cls-4,.cls-5,.cls-6,.cls-7,.cls-8{fill:none;}.cls-3{stroke:var(--R\=193-G\=243-B\=133, #c1d780);}.cls-3,.cls-4,.cls-5,.cls-6,.cls-7,.cls-8{stroke-linecap:round;}.cls-4{stroke:var(--R\=123-G\=117-B\=180, #7b75b4);}.cls-5{stroke:var(--R\=155-G\=62-B\=99, #9c3e63);}.cls-6{stroke:var(--R\=88-G\=203-B\=192, #62c0ba);}.cls-7{stroke:var(--R\=144-G\=233-B\=158, #9bcc97);}.cls-8{stroke:var(--R\=91-G\=143-B\=198, #5b8fc6);}</style><linearGradient id="Degradado_sin_nombre_59" y1="240" x2="640" y2="240" gradientTransform="matrix(-1, 0, 0, 1, 640, 0)" gradientUnits="userSpaceOnUse"><stop offset="0" stop-color="#f3eb75"/><stop offset="0.1" stop-color="#c1d780"/><stop offset="0.23" stop-color="#9bcc97"/><stop offset="0.35" stop-color="#7ac4aa"/><stop offset="0.48" stop-color="#62c0ba"/><stop offset="0.61" stop-color="#5b8fc6"/><stop offset="0.73" stop-color="#7b75b4"/><stop offset="0.87" stop-color="#945892"/><stop offset="1" stop-color="#9c3e63"/></linearGradient></defs><title>plantilla-perfil</title><path class="cls-1" d="M0,0V480H640V0ZM271.5,230.5c1-14,13-45,12-50s-10-43-10-51,3-27,8-35,18.44-16,18-23c-1-16-9.72-20-11-29-2-14,6-23,17-27,9.68-3.52,20,1,27,7,4.29,3.68,5,7,6,11s-1,9,0,10,6,5,6,7-3,3-3,4,2,3,1,4-1,0-1,1,1,1,1,2-3,2-3,3-1,7-3,7-8-1-9,0-1,8-2,11-3,12-2,14,12,15,21,24,13,15,13,20-5,13-5,19v19c0,3-2,14-1,15s4.27,14,4,17c-1,11-7,25-8,28s1,12,1,15-3,31-5,37-12,45-14,51-6,13-7,17-4,46-4,50,1,30,2,33,27,10,30,11,8,3,9,3,6,2,6,3c0,3-5,4-3,4s5,2,5,3-4,3-6,3-4,1-6,1h-13c-2,0-25-2-32-2s-16-1-17-5,2-17,1-21-10-48-10-60,5-27,6-34-1-30-2-42,1-32-5-41S270.5,244.5,271.5,230.5Z" transform="translate(0.5 0.5)"/><line class="cls-2" x1="305" y1="89" x2="305" y2="92.5"/><path class="cls-3" d="M294.5,80.5c1.65,2.78,6.23,6.33,10,8,4.5,2,13,7,19,8" transform="translate(0.5 0.5)"/><polyline class="cls-4" points="305 89 358 140 345.5 185"/><line class="cls-5" x1="283.5" y1="185" x2="352.5" y2="185"/><line class="cls-6" x1="272.5" y1="236" x2="348.5" y2="236"/><line class="cls-7" x1="357.5" y1="140" x2="275.5" y2="140"/><line class="cls-8" x1="305" y1="92" x2="324" y2="185"/></svg>