<svg id="Capa_1" data-name="Capa 1" xmlns="http://www.w3.org/2000/svg" viewBox="0 0 1528.528 426.437"><defs><style>.cls-1{fill:#65c1c2;}.cls-2{fill:#d0d0d0;}.cls-3{fill:none;}</style></defs><title>titulo</title><path class="cls-1" d="M42.452,423.816h88.285v24.83H78.318v20.18h44.773v23.332H78.318v47.217H42.452Z" transform="translate(55.697 -361.769)"/><path class="cls-1" d="M173.051,482.778l-30.663-3.232q1.732-8.04,5-12.651a27.588,27.588,0,0,1,9.42-8,39.448,39.448,0,0,1,12.139-3.784,97.921,97.921,0,0,1,16.711-1.34,132.937,132.937,0,0,1,23.175,1.616,29.8,29.8,0,0,1,14.582,6.739,23.646,23.646,0,0,1,6.464,10.051,36.3,36.3,0,0,1,2.365,12.415v36.97a44.556,44.556,0,0,0,.749,9.261,41.434,41.434,0,0,0,3.271,8.553H206.158a30.463,30.463,0,0,1-2.365-4.927,36.368,36.368,0,0,1-1.1-5.321,41.521,41.521,0,0,1-12.533,8.671,52.18,52.18,0,0,1-19.785,3.469q-14.978,0-22.742-6.937a22.037,22.037,0,0,1-7.764-17.105q0-9.537,5.6-15.686t20.652-9.144q18.049-3.624,23.411-5.084a108.807,108.807,0,0,0,11.351-3.824q0-5.912-2.443-8.276t-8.592-2.365q-7.884,0-11.824,2.523Q174.942,477.34,173.051,482.778Zm27.825,16.869q-6.621,2.364-13.794,4.178-9.775,2.6-12.376,5.123a8.206,8.206,0,0,0-.039,12.1q2.64,2.4,7.764,2.4a19.961,19.961,0,0,0,9.971-2.6,15.735,15.735,0,0,0,6.543-6.346,21.24,21.24,0,0,0,1.931-9.734Z" transform="translate(55.697 -361.769)"/><path class="cls-1" d="M245.807,516.122l31.846-3q1.969,5.676,5.518,8.119t9.459,2.443q6.462,0,10.011-2.754a6.156,6.156,0,0,0,2.758-5.116q0-3.462-3.626-5.352-2.6-1.338-13.794-3.306-16.713-2.912-23.214-5.393a24.476,24.476,0,0,1-10.957-8.387,21.768,21.768,0,0,1-4.454-13.465,22.052,22.052,0,0,1,4.809-14.254,28.612,28.612,0,0,1,13.242-8.937q8.435-2.954,22.623-2.954,14.976,0,22.111,2.286a28.858,28.858,0,0,1,11.9,7.094,37.149,37.149,0,0,1,7.922,13.007l-30.427,3a10.4,10.4,0,0,0-3.941-5.912,16.114,16.114,0,0,0-9.144-2.522q-5.439,0-7.922,1.928a5.76,5.76,0,0,0-2.483,4.683,4.991,4.991,0,0,0,3.153,4.644q3.151,1.573,13.716,2.834,16,1.81,23.805,5.04a26.246,26.246,0,0,1,11.942,9.212,22.631,22.631,0,0,1,4.139,13.15,25.877,25.877,0,0,1-4.375,14.1q-4.376,6.851-13.8,10.906t-25.657,4.055q-22.94,0-32.674-6.543A29.413,29.413,0,0,1,245.807,516.122Z" transform="translate(55.697 -361.769)"/><path class="cls-1" d="M350.094,423.816h32.082v42.566a43.292,43.292,0,0,1,13.006-9.695,36.93,36.93,0,0,1,15.292-2.917q13.084,0,20.613,7.961t7.528,24.436v53.208h-32.24V493.341q0-7.882-2.917-11.154t-8.2-3.271a11.655,11.655,0,0,0-9.459,4.414q-3.627,4.415-3.626,15.844v40.2H350.094Z" transform="translate(55.697 -361.769)"/><path class="cls-2" d="M459.785,423.816h35.708v87.1h55.73v28.456H459.785Z" transform="translate(55.697 -361.769)"/><path class="cls-2" d="M638.505,520.3h-40.54l-5.632,19.076H555.874l43.433-115.559h38.949L681.68,539.375H644.287ZM631.1,495.312,618.343,453.77l-12.622,41.542Z" transform="translate(55.697 -361.769)"/><path class="cls-2" d="M693.109,423.816h66.844q16.712,0,25.658,8.277a26.806,26.806,0,0,1,8.948,20.5,25.864,25.864,0,0,1-6.385,17.578q-4.257,4.889-12.455,7.725,12.453,3,18.326,10.287t5.873,18.327a31.509,31.509,0,0,1-4.178,16.159,30.769,30.769,0,0,1-11.429,11.351q-4.5,2.6-13.559,3.783a156.119,156.119,0,0,1-16,1.577H693.109Zm36.024,45.325h15.529q8.352,0,11.627-2.877t3.27-8.316a9.885,9.885,0,0,0-3.27-7.883q-3.273-2.838-11.391-2.837H729.133Zm0,45.4h18.209q9.222,0,13.006-3.272a11.028,11.028,0,0,0,3.783-8.789,10.184,10.184,0,0,0-3.744-8.237q-3.744-3.113-13.125-3.113H729.133Z" transform="translate(55.697 -361.769)"/><path class="cls-1" d="M816.606,455.662H850.9v32.161h-34.29Zm0,51.552H850.9v32.161h-34.29Z" transform="translate(55.697 -361.769)"/><path class="cls-1" d="M201.189,704.482l14.267-.867a26.127,26.127,0,0,0,1.892,10.484,15.017,15.017,0,0,0,6.976,7.094,24.482,24.482,0,0,0,11.863,2.759q9.459,0,14.189-3.784t4.73-8.907a10.638,10.638,0,0,0-2.838-7.015q-2.917-3.31-14.228-8.159t-14.465-6.818a23.364,23.364,0,0,1-7.961-7.607,18.849,18.849,0,0,1-2.68-10.051q0-9.932,7.882-17.026t22.071-7.094q15.765,0,24,7.291t8.552,19.195l-13.952.945q-.315-7.568-5.36-11.981t-14.267-4.415q-7.411,0-11.509,3.39t-4.1,7.331a8.889,8.889,0,0,0,3.547,6.937q2.365,2.051,12.218,6.306,16.395,7.094,20.653,11.193a21.3,21.3,0,0,1,6.779,15.922,22.462,22.462,0,0,1-3.824,12.218,26.312,26.312,0,0,1-11.666,9.578,44.107,44.107,0,0,1-18.484,3.586q-14.505,0-24.673-7.173T201.189,704.482Z" transform="translate(55.697 -361.769)"/><path class="cls-1" d="M337.715,717.961q-15.057,17.028-30.821,17.026-9.7,0-15.647-5.556a17.89,17.89,0,0,1-5.951-13.6q0-5.28,2.68-18.13l10.089-48.32h14.268L301.14,702.905a53.974,53.974,0,0,0-1.419,10.406,9.5,9.5,0,0,0,2.877,7.37q2.877,2.641,8.474,2.64a25.454,25.454,0,0,0,11.7-2.917,31.1,31.1,0,0,0,9.854-7.882,41.243,41.243,0,0,0,6.739-11.745,104.549,104.549,0,0,0,4.021-15.213l7.567-36.181h14.267l-17.5,83.713H334.562Z" transform="translate(55.697 -361.769)"/><path class="cls-1" d="M369.8,733.1l17.5-83.713h14.268l-17.5,83.713Zm20.81-99.4L394,617.537h14.189L404.8,633.7Z" transform="translate(55.697 -361.769)"/><path class="cls-1" d="M439.558,721.509l-2.365,11.666a39.271,39.271,0,0,1-9.932,1.34q-8.514,0-13.558-4.178a10.591,10.591,0,0,1-3.784-8.592q0-2.759,2.049-12.691l10.169-48.636H410.865l2.286-11.035h11.272l4.335-20.574,16.317-9.853-6.385,30.427h14.031l-2.364,11.035H436.4l-9.695,46.271a86.6,86.6,0,0,0-1.813,10.563,4.975,4.975,0,0,0,1.458,3.862q1.458,1.342,4.769,1.34A34.241,34.241,0,0,0,439.558,721.509Z" transform="translate(55.697 -361.769)"/><path class="cls-1" d="M544.349,717.961q-15.057,17.028-30.821,17.026-9.695,0-15.647-5.556a17.89,17.89,0,0,1-5.951-13.6q0-5.28,2.68-18.13l10.09-48.32h14.267l-11.193,53.522a53.974,53.974,0,0,0-1.419,10.406,9.5,9.5,0,0,0,2.877,7.37q2.877,2.641,8.474,2.64a25.461,25.461,0,0,0,11.706-2.917,31.1,31.1,0,0,0,9.853-7.882A41.22,41.22,0,0,0,546,700.777a104.417,104.417,0,0,0,4.021-15.213l7.567-36.181h14.267L554.36,733.1H541.2Z" transform="translate(55.697 -361.769)"/><path class="cls-1" d="M569.968,765.178l24.2-115.795h13.164l-2.443,11.666q7.33-7.645,13.124-10.6a26.6,26.6,0,0,1,12.258-2.956,25.651,25.651,0,0,1,19.864,8.71q7.881,8.711,7.882,24.948a63.278,63.278,0,0,1-4.335,23.845,53.354,53.354,0,0,1-10.642,17.3,44.78,44.78,0,0,1-12.769,9.616,30.519,30.519,0,0,1-13.243,3.074q-15.057,0-23.333-15.292l-9.459,45.483Zm28.22-66.293q0,9.382,1.339,13.007A17.7,17.7,0,0,0,616.4,723.321q12.3,0,19.864-13.834a58.239,58.239,0,0,0,7.568-28.258q0-10.643-5.085-16.436A16.15,16.15,0,0,0,626.092,659,18.832,18.832,0,0,0,616,661.876a30.038,30.038,0,0,0-8.631,8.593,51.2,51.2,0,0,0-6.582,13.991A49.1,49.1,0,0,0,598.188,698.885Z" transform="translate(55.697 -361.769)"/><path class="cls-1" d="M702.821,733.1l17.5-83.713h14.267l-2.917,13.794q7.962-8.907,14.229-12.3a28.148,28.148,0,0,1,13.6-3.389,20.4,20.4,0,0,1,13.046,4.138,19.6,19.6,0,0,1,6.9,11.548,46.785,46.785,0,0,1,13.44-11.784,30.262,30.262,0,0,1,14.858-3.9q10.483,0,15.726,4.966t5.242,13.952a73.54,73.54,0,0,1-1.813,12.77L815.621,733.1H801.354l11.508-55.336a51.9,51.9,0,0,0,1.5-9.7,8.3,8.3,0,0,0-2.6-6.463q-2.6-2.365-7.331-2.365a25.727,25.727,0,0,0-13.007,3.862,28,28,0,0,0-10.286,10.13q-3.666,6.266-6.424,19.272L766.2,733.1H751.93l11.824-56.518a44.436,44.436,0,0,0,1.261-8.2,8.886,8.886,0,0,0-2.562-6.622,9.091,9.091,0,0,0-6.66-2.522,25.456,25.456,0,0,0-12.731,3.862,30.359,30.359,0,0,0-10.838,10.76q-4.179,6.9-6.858,19.667L717.089,733.1Z" transform="translate(55.697 -361.769)"/><path class="cls-1" d="M832.017,765.414l.867-13.4a31.233,31.233,0,0,0,8.592,1.261,11.573,11.573,0,0,0,7.016-1.97q3.468-2.6,7.567-9.775l4.572-8.2-13.952-83.949H860.71l6.306,42.329q1.892,12.534,3.232,25.066l37.442-67.395h14.9L869.223,744.21q-7.726,13.873-13.716,18.366a22.369,22.369,0,0,1-13.794,4.493A29.137,29.137,0,0,1,832.017,765.414Z" transform="translate(55.697 -361.769)"/><path class="cls-1" d="M929.158,764.547l2.523-12.139a33.285,33.285,0,0,0,8.671,1.34,9.31,9.31,0,0,0,7.291-3.035q2.719-3.036,5.636-16.829l17.578-84.5h14.268l-18.131,87.1q-3.39,16.317-7.8,22.229-5.91,7.883-16.474,7.883A55.913,55.913,0,0,1,929.158,764.547ZM974.325,633.7l3.39-16.159h14.11L988.436,633.7Z" transform="translate(55.697 -361.769)"/><path class="cls-1" d="M1046.373,722.69a56.7,56.7,0,0,1-14.267,9.341,36.641,36.641,0,0,1-14.663,2.956q-11.586,0-18.681-6.818t-7.094-17.46a23.935,23.935,0,0,1,3.192-12.415,25.036,25.036,0,0,1,8.474-8.671,37.314,37.314,0,0,1,12.927-4.69q4.808-.945,18.249-1.5t19.272-2.838a36.884,36.884,0,0,0,1.656-9.7,9.366,9.366,0,0,0-3.626-7.8q-4.966-3.94-14.5-3.941-8.986,0-14.7,3.981a22.465,22.465,0,0,0-8.316,11.311l-14.426-1.261q4.414-12.453,13.992-19.076t24.161-6.621q15.526,0,24.592,7.409a17.486,17.486,0,0,1,6.938,14.347,72.452,72.452,0,0,1-1.971,15.528l-4.651,20.81a77.931,77.931,0,0,0-2.207,16.16,54.1,54.1,0,0,0,1.734,11.351h-14.425A52.592,52.592,0,0,1,1046.373,722.69Zm5.281-32a34.338,34.338,0,0,1-6.424,1.812q-3.43.633-11.469,1.34-12.456,1.106-17.578,2.8a14.72,14.72,0,0,0-7.726,5.4,13.954,13.954,0,0,0-2.6,8.2,12.884,12.884,0,0,0,4.137,9.854q4.14,3.862,11.785,3.862a27.869,27.869,0,0,0,23.963-14.189Q1049.527,703.064,1051.654,690.688Z" transform="translate(55.697 -361.769)"/><path class="cls-1" d="M1137.495,702.59l14.268,1.5q-5.361,15.687-15.253,23.293a35.942,35.942,0,0,1-22.5,7.606q-13.638,0-22.11-8.828t-8.474-24.673a70.375,70.375,0,0,1,5.438-26.958q5.439-13.242,15.569-20.14a40.136,40.136,0,0,1,23.135-6.9q13.479,0,21.362,7.607t7.883,20.14l-14.032.946q-.078-7.962-4.611-12.455t-11.942-4.493a22.073,22.073,0,0,0-14.9,5.439q-6.308,5.439-9.892,16.514a69.063,69.063,0,0,0-3.587,21.322q0,10.722,4.729,16.081a14.95,14.95,0,0,0,11.666,5.36q6.936,0,13.282-5.281T1137.495,702.59Z" transform="translate(55.697 -361.769)"/><path class="cls-1" d="M1160.591,733.1l24.2-115.559h14.189L1184,689.19l41.62-39.807h18.84L1208.754,680.6l21.6,52.5h-15.608l-16.711-42.96-17.342,14.976-5.833,27.984Z" transform="translate(55.697 -361.769)"/><path class="cls-1" d="M1302.636,704.64l13.873,1.419q-3,10.326-13.755,19.628a37.94,37.94,0,0,1-25.658,9.3,34.658,34.658,0,0,1-17.066-4.3,28.192,28.192,0,0,1-11.824-12.494,41.537,41.537,0,0,1-4.059-18.681,59.558,59.558,0,0,1,6.345-26.6q6.345-12.888,16.435-19.155a40.629,40.629,0,0,1,21.835-6.266q14.976,0,23.924,9.3t8.947,25.382a74.844,74.844,0,0,1-1.105,12.612h-61.641a34.88,34.88,0,0,0-.316,4.415q0,11.745,5.4,17.933a16.868,16.868,0,0,0,13.2,6.187,25.467,25.467,0,0,0,14.425-4.808A31.3,31.3,0,0,0,1302.636,704.64Zm-41.463-20.732h46.98q.078-2.205.079-3.153,0-10.719-5.36-16.435a18.07,18.07,0,0,0-13.8-5.715,25.359,25.359,0,0,0-16.672,6.306Q1264.878,671.219,1261.173,683.908Z" transform="translate(55.697 -361.769)"/><path class="cls-1" d="M1364.276,721.509l-2.364,11.666a39.265,39.265,0,0,1-9.932,1.34q-8.512,0-13.558-4.178a10.59,10.59,0,0,1-3.783-8.592q0-2.759,2.049-12.691l10.169-48.636h-11.273l2.286-11.035h11.273l4.335-20.574,16.317-9.853-6.386,30.427h14.031l-2.364,11.035h-13.952l-9.7,46.271a86.6,86.6,0,0,0-1.813,10.563,4.979,4.979,0,0,0,1.458,3.862q1.458,1.342,4.77,1.34A34.224,34.224,0,0,0,1364.276,721.509Z" transform="translate(55.697 -361.769)"/><path class="cls-1" d="M1379.491,733.1l3.389-16.159h16.081l-3.39,16.159Zm8.986-29.166,8.75-62.745,4.965-23.648h17.263l-5.359,25.618-16.712,60.775Z" transform="translate(55.697 -361.769)"/><rect class="cls-3" width="1528.528" height="426.437"/></svg>