<?xml version="1.0" encoding="utf-8"?>
<!-- Generator: Adobe Illustrator 24.0.2, SVG Export Plug-In . SVG Version: 6.00 Build 0)  -->
<svg version="1.1" id="Capa_1" xmlns="http://www.w3.org/2000/svg" xmlns:xlink="http://www.w3.org/1999/xlink" x="0px" y="0px"
	 viewBox="0 0 1559.1 425.2" style="enable-background:new 0 0 1559.1 425.2;" xml:space="preserve">
<style type="text/css">
	.st0{fill:none;}
	.st1{fill:#D0D0D0;}
	.st2{fill:url(#SVGID_1_);}
	.st3{fill:url(#SVGID_2_);}
	.st4{fill:url(#SVGID_3_);}
	.st5{fill:url(#SVGID_4_);}
</style>
<title>titulo</title>
<rect class="st0" width="1559.1" height="425.2"/>
<g>
	<path class="st1" d="M846.1,111.4h61.6v150.1h96.1v49.1H846.1V111.4z"/>
	<path class="st1" d="M1154.2,277.7h-69.9l-9.7,32.9h-62.9l74.9-199.2h67.1l74.9,199.2h-64.5L1154.2,277.7z M1141.4,234.6l-22-71.6
		l-21.8,71.6L1141.4,234.6z"/>
	<path class="st1" d="M1248.3,111.4h115.2c19.2,0,33.9,4.8,44.2,14.3c10,9,15.7,21.9,15.4,35.3c0.2,11.1-3.7,21.9-11,30.3
		c-4.9,5.6-12,10.1-21.5,13.3c14.3,3.4,24.8,9.4,31.6,17.7c6.7,8.4,10.1,18.9,10.1,31.6c0.1,9.8-2.3,19.4-7.2,27.9
		c-4.7,8.2-11.5,14.9-19.7,19.6c-5.2,3-13,5.2-23.4,6.5c-9.1,1.4-18.3,2.3-27.6,2.7h-106.3V111.4z M1310.4,189.5h26.8
		c9.6,0,16.3-1.7,20-5c3.8-3.3,5.6-8.1,5.6-14.3c0.3-5.1-1.8-10.1-5.6-13.6c-3.8-3.3-10.3-4.9-19.6-4.9h-27.2V189.5z M1310.4,267.8
		h31.4c10.6,0,18.1-1.9,22.4-5.6c4.4-3.8,6.8-9.4,6.5-15.2c0.2-5.5-2.2-10.7-6.5-14.2c-4.3-3.6-11.8-5.4-22.6-5.4h-31.3V267.8z"/>
	<linearGradient id="SVGID_1_" gradientUnits="userSpaceOnUse" x1="67.327" y1="210.9577" x2="834.4327" y2="210.9577">
		<stop  offset="0" style="stop-color:#F9F871"/>
		<stop  offset="9.776536e-02" style="stop-color:#C1F385"/>
		<stop  offset="0.2318" style="stop-color:#90E99E"/>
		<stop  offset="0.3547" style="stop-color:#6ADBB3"/>
		<stop  offset="0.4832" style="stop-color:#58CBC0"/>
		<stop  offset="0.6061" style="stop-color:#5B8FC6"/>
		<stop  offset="0.7346" style="stop-color:#7B75B4"/>
		<stop  offset="0.8743" style="stop-color:#935891"/>
		<stop  offset="1" style="stop-color:#9B3E63"/>
	</linearGradient>
	<polygon class="st2" points="126.6,310.6 188.5,310.6 188.5,229.2 265.7,229.2 265.7,188.9 188.5,188.9 188.5,154.2 278.8,154.2 
		278.8,111.4 126.6,111.4 	"/>
	<g>
		<path class="st0" d="M399.7,242.1c-7.6,2.7-15.5,5.1-23.8,7.2c-11.2,3-18.3,5.9-21.3,8.8c-5.8,5.3-6.2,14.2-0.9,20
			c0.3,0.3,0.6,0.6,0.9,0.9c3,2.8,7.5,4.1,13.4,4.1c6,0,12-1.5,17.2-4.5c4.8-2.5,8.7-6.3,11.3-10.9c2.4-5.3,3.6-11,3.3-16.8
			L399.7,242.1z"/>
		<linearGradient id="SVGID_2_" gradientUnits="userSpaceOnUse" x1="67.327" y1="238.3994" x2="834.4327" y2="238.3994">
			<stop  offset="0" style="stop-color:#F9F871"/>
			<stop  offset="9.776536e-02" style="stop-color:#C1F385"/>
			<stop  offset="0.2318" style="stop-color:#90E99E"/>
			<stop  offset="0.3547" style="stop-color:#6ADBB3"/>
			<stop  offset="0.4832" style="stop-color:#58CBC0"/>
			<stop  offset="0.6061" style="stop-color:#5B8FC6"/>
			<stop  offset="0.7346" style="stop-color:#7B75B4"/>
			<stop  offset="0.8743" style="stop-color:#935891"/>
			<stop  offset="1" style="stop-color:#9B3E63"/>
		</linearGradient>
		<path class="st3" d="M453.8,279.9v-63.7c-0.1-7.3-1.5-14.6-4.1-21.4c-2.2-6.6-6-12.6-11.1-17.3c-7.2-6.1-15.9-10.1-25.1-11.6
			c-13.2-2.1-26.6-3-40-2.8c-9.7-0.1-19.3,0.7-28.8,2.3c-7.3,1-14.3,3.2-20.9,6.5c-6.4,3.3-11.9,8-16.2,13.8
			c-3.8,5.3-6.6,12.6-8.6,21.8l52.9,5.6c2.2-6.2,5-10.5,8.6-12.8c4.5-2.9,11.3-4.3,20.4-4.3c7.1,0,12,1.4,14.8,4.1
			c2.8,2.7,4.2,7.5,4.2,14.3c-6.4,2.6-12.9,4.8-19.6,6.6c-6.2,1.7-19.6,4.6-40.4,8.8c-17.3,3.4-29.2,8.7-35.6,15.8
			c-6.4,7.1-9.7,16.1-9.7,27c-0.2,11.3,4.7,22.1,13.4,29.5c8.9,8,22,12,39.2,12c11.6,0.2,23.2-1.8,34.1-6
			c8.1-3.6,15.4-8.7,21.6-14.9c0.4,3.1,1,6.2,1.9,9.2c1.1,2.9,2.5,5.8,4.1,8.5h51.9c-2.4-4.7-4.3-9.6-5.6-14.7
			C454.1,290.6,453.7,285.2,453.8,279.9z M396.4,267.7c-2.6,4.7-6.5,8.5-11.3,10.9c-5.2,3-11.2,4.5-17.2,4.5
			c-5.9,0-10.4-1.4-13.4-4.1c-0.3-0.3-0.6-0.6-0.9-0.9c-5.3-5.8-4.8-14.7,0.9-20c3-2.9,10.1-5.8,21.3-8.8c8.2-2.1,16.2-4.5,23.8-7.2
			l0,8.8C400,256.7,398.8,262.4,396.4,267.7z"/>
	</g>
	<linearGradient id="SVGID_3_" gradientUnits="userSpaceOnUse" x1="67.327" y1="238.4068" x2="834.38" y2="238.4068">
		<stop  offset="0" style="stop-color:#F9F871"/>
		<stop  offset="9.776536e-02" style="stop-color:#C1F385"/>
		<stop  offset="0.2318" style="stop-color:#90E99E"/>
		<stop  offset="0.3547" style="stop-color:#6ADBB3"/>
		<stop  offset="0.4832" style="stop-color:#58CBC0"/>
		<stop  offset="0.6061" style="stop-color:#5B8FC6"/>
		<stop  offset="0.7346" style="stop-color:#7B75B4"/>
		<stop  offset="0.8743" style="stop-color:#935891"/>
		<stop  offset="1" style="stop-color:#9B3E63"/>
	</linearGradient>
	<path class="st4" d="M602.9,225.2c-9-3.7-22.6-6.6-41-8.7c-12.1-1.4-20-3.1-23.6-4.9c-3.3-1.3-5.4-4.5-5.4-8c0-3.2,1.6-6.2,4.3-8.1
		c2.9-2.2,7.4-3.3,13.7-3.3c5.6-0.2,11.1,1.3,15.8,4.3c3.4,2.5,5.8,6.1,6.8,10.2l52.5-5.2c-3-8.3-7.6-16-13.7-22.4
		c-5.7-5.7-12.8-9.9-20.5-12.2c-8.2-2.6-20.9-3.9-38.1-3.9c-16.3,0-29.3,1.7-39,5.1c-8.9,2.9-16.8,8.2-22.8,15.4
		c-5.6,7-8.5,15.7-8.3,24.6c-0.1,8.4,2.6,16.5,7.7,23.2c4.8,6.5,11.3,11.5,18.9,14.5c7.5,2.9,20.8,6,40,9.3
		c12.9,2.3,20.8,4.2,23.8,5.7c4.2,2.2,6.3,5.2,6.3,9.2c0,3.6-1.8,6.9-4.8,8.8c-4.1,3.2-9.8,4.7-17.3,4.7c-6.8,0-12.2-1.4-16.3-4.2
		c-4.1-2.8-7.2-7.5-9.5-14l-54.9,5.2c2.7,13.1,10.4,24.6,21.5,32.1c11.2,7.5,30,11.3,56.3,11.3c18.7,0,33.4-2.3,44.2-7
		c10.8-4.7,18.8-10.9,23.8-18.8c4.8-7.2,7.4-15.6,7.5-24.3c0-8.1-2.5-16-7.1-22.7C618.3,233.9,611.2,228.3,602.9,225.2z"/>
	<linearGradient id="SVGID_4_" gradientUnits="userSpaceOnUse" x1="67.327" y1="210.9577" x2="834.4327" y2="210.9577">
		<stop  offset="0" style="stop-color:#F9F871"/>
		<stop  offset="9.776536e-02" style="stop-color:#C1F385"/>
		<stop  offset="0.2318" style="stop-color:#90E99E"/>
		<stop  offset="0.3547" style="stop-color:#6ADBB3"/>
		<stop  offset="0.4832" style="stop-color:#58CBC0"/>
		<stop  offset="0.6061" style="stop-color:#5B8FC6"/>
		<stop  offset="0.7346" style="stop-color:#7B75B4"/>
		<stop  offset="0.8743" style="stop-color:#935891"/>
		<stop  offset="1" style="stop-color:#9B3E63"/>
	</linearGradient>
	<path class="st5" d="M761.1,163c-9-0.2-18,1.5-26.4,5c-8.5,4.1-16.1,9.8-22.4,16.7v-73.4H657v199.2h55.3v-69.3
		c0-13.1,2.1-22.2,6.3-27.3c3.9-5,10-7.8,16.3-7.6c6.1,0,10.8,1.9,14.1,5.6c3.4,3.8,5,10.2,5,19.2v79.4h55.6v-91.7
		c0-18.9-4.3-33-13-42.1S776.1,163,761.1,163z"/>
</g>
</svg>
