<svg id="Capa_1" data-name="Capa 1" xmlns="http://www.w3.org/2000/svg" viewBox="0 0 1366 768"><defs><style>.cls-1{fill:#fff;}.cls-2{fill:#878787;}</style></defs><title>vertical</title><rect class="cls-1" x="413" y="-2" width="539" height="768"/><path class="cls-2" d="M712.127,203.2a281.446,281.446,0,0,0-52.611,4.114,202.106,202.106,0,0,0-25.477,6.235,173.309,173.309,0,0,0-24.253,9.622q-5.844,2.874-11.413,6.231c-3.716,2.224-7.337,4.6-10.832,7.139a134.735,134.735,0,0,0-19.372,17.116,142.518,142.518,0,0,0-27.751,43.352q-2.522,5.975-4.583,12.142c-1.378,4.1-2.576,8.3-3.7,12.485q-1.639,6.3-2.871,12.7c-.8,4.265-1.454,8.553-2.007,12.855a170.666,170.666,0,0,0-1.222,25.964,175.134,175.134,0,0,0,2.751,25.874,177.074,177.074,0,0,0,17.14,49.247A209.461,209.461,0,0,0,576,491.5a186.63,186.63,0,0,1-33.119-41.546,180.47,180.47,0,0,1-11.715-24.1,165.086,165.086,0,0,1-7.806-25.731,168.617,168.617,0,0,1-2.787-53.691A186.889,186.889,0,0,1,525.4,319.9c1.138-4.351,2.344-8.667,3.752-12.954s2.967-8.516,4.7-12.687A147.478,147.478,0,0,1,563.271,249a143.14,143.14,0,0,1,44.138-30.867,168.127,168.127,0,0,1,25.311-9.074,202.922,202.922,0,0,1,26.259-5.209A239.886,239.886,0,0,1,712.127,203.2Z"/><path class="cls-2" d="M573.031,442.159q.75,6.072,1.327,12.15c.415,4.052.734,8.108,1.091,12.162.3,4.057.645,8.111.906,12.17s.558,8.116.771,12.177l.141,2.672-2.4-.956-1.158-.461-1.034-.434-2.061-.87-4.107-1.75c-2.742-1.154-5.449-2.384-8.171-3.579-5.448-2.384-10.854-4.861-16.258-7.343-10.78-5.027-21.523-10.137-32.054-15.727,11.242,3.971,22.277,8.412,33.282,12.922,5.488,2.286,10.976,4.573,16.427,6.944l16.221,7.035-2.261,1.715c-.183-4.063-.275-8.13-.418-12.194s-.185-8.134-.282-12.2c-.039-4.07-.117-8.138-.1-12.21Q572.875,448.275,573.031,442.159Z"/><path class="cls-2" d="M650.307,491.091a281.453,281.453,0,0,0,52.611-4.114,202.148,202.148,0,0,0,25.477-6.235,173.3,173.3,0,0,0,24.252-9.622q5.844-2.874,11.414-6.231c3.715-2.224,7.337-4.6,10.832-7.139a134.727,134.727,0,0,0,19.371-17.116,142.521,142.521,0,0,0,27.752-43.352q2.522-5.974,4.583-12.142c1.377-4.1,2.575-8.295,3.7-12.485,1.094-4.2,2.042-8.44,2.872-12.7.8-4.265,1.454-8.553,2.006-12.855a170.409,170.409,0,0,0,1.222-25.964,175.134,175.134,0,0,0-2.751-25.874,177.072,177.072,0,0,0-17.139-49.247,209.5,209.5,0,0,0-30.079-43.222,186.573,186.573,0,0,1,33.119,41.546,180.6,180.6,0,0,1,11.716,24.1,164.975,164.975,0,0,1,7.805,25.731,168.588,168.588,0,0,1,2.787,53.691,186.748,186.748,0,0,1-4.821,26.534c-1.138,4.351-2.343,8.667-3.752,12.954s-2.967,8.516-4.7,12.687a147.475,147.475,0,0,1-29.425,45.26,143.164,143.164,0,0,1-44.138,30.867,168.139,168.139,0,0,1-25.312,9.074,202.889,202.889,0,0,1-26.259,5.209A239.877,239.877,0,0,1,650.307,491.091Z"/><path class="cls-2" d="M789.4,252.132q-.75-6.07-1.326-12.15c-.416-4.052-.734-8.108-1.092-12.162-.3-4.057-.645-8.111-.906-12.17s-.558-8.116-.771-12.177l-.14-2.672,2.4.956,1.158.461,1.033.434,2.062.87,4.106,1.75c2.742,1.154,5.449,2.384,8.172,3.579,5.447,2.384,10.854,4.861,16.258,7.343,10.78,5.027,21.522,10.137,32.054,15.727-11.243-3.971-22.278-8.412-33.282-12.922-5.489-2.286-10.977-4.573-16.428-6.944l-16.221-7.035,2.262-1.715c.183,4.063.275,8.13.417,12.194s.186,8.134.283,12.2c.039,4.07.117,8.138.1,12.21Q789.56,246.017,789.4,252.132Z"/><path class="cls-2" d="M646.246,326.105l-10.843-.038v-2.816h14c.025.508.039,1.015.039,1.522a14.32,14.32,0,0,1-3.463,9.778,13.366,13.366,0,0,1-10.5,4.45,14.052,14.052,0,0,1-10.347-4.051,14.374,14.374,0,0,1,10.347-24.671,13.719,13.719,0,0,1,7.7,2.263,10.663,10.663,0,0,1,4.546,5.764l-2.929.913a8.138,8.138,0,0,0-3.462-4.394,10.412,10.412,0,0,0-5.859-1.731,10.815,10.815,0,0,0-8.084,3.253,12.389,12.389,0,0,0,0,16.568,11.545,11.545,0,0,0,15.693.38A9.713,9.713,0,0,0,646.246,326.105Z"/><path class="cls-2" d="M655.243,314.749a1.93,1.93,0,0,1-.552-1.427,1.865,1.865,0,0,1,.552-1.407,1.963,1.963,0,0,1,1.426-.533,1.93,1.93,0,0,1,1.427.552,1.881,1.881,0,0,1,.552,1.388,1.944,1.944,0,0,1-.552,1.407,1.9,1.9,0,0,1-1.427.571A1.927,1.927,0,0,1,655.243,314.749Zm2.872,23.3h-2.891V318.838h2.891Z"/><path class="cls-2" d="M672.723,318.078a6.391,6.391,0,0,1,2.587.608v2.587a6.792,6.792,0,0,0-2.853-.609,4.3,4.3,0,0,0-3.614,1.835,7.71,7.71,0,0,0-1.37,4.737V338.05h-2.891V318.838H667.4V321.5A5.764,5.764,0,0,1,672.723,318.078Z"/><path class="cls-2" d="M692.164,320.284a8.353,8.353,0,0,1,2.016,5.859V338.05h-2.853v-3.043a7.76,7.76,0,0,1-2.91,2.72,7.92,7.92,0,0,1-3.938,1.084,7.626,7.626,0,0,1-5.155-1.718,5.779,5.779,0,0,1-2-4.614,5.9,5.9,0,0,1,1.046-3.418,6.769,6.769,0,0,1,2.8-2.336,9.032,9.032,0,0,1,3.842-.811,21.128,21.128,0,0,1,6.316,1.066v-.723a6.8,6.8,0,0,0-1.2-4.073q-1.2-1.671-4.089-1.672a8.558,8.558,0,0,0-2.683.457,19.923,19.923,0,0,0-2.986,1.294l-1.141-2.284a15.663,15.663,0,0,1,7-1.9A7.64,7.64,0,0,1,692.164,320.284Zm-3.234,14.944a5.025,5.025,0,0,0,2.4-3.1v-3.039a21.171,21.171,0,0,0-5.859-.818,6.161,6.161,0,0,0-3.8,1.169,3.632,3.632,0,0,0-.191,5.825,5.514,5.514,0,0,0,3.5,1.071A7.6,7.6,0,0,0,688.93,335.228Z"/><path class="cls-2" d="M713.467,333.3v-12.06H710.31v-2.4h3.272l.419-4.489h2.358v4.489h4.984v2.4h-4.984v11.946a3.18,3.18,0,0,0,.8,2.263,2.937,2.937,0,0,0,2.168.894,7.779,7.779,0,0,0,2.321-.38v2.4a10.273,10.273,0,0,1-3.044.457,4.857,4.857,0,0,1-3.748-1.5A5.68,5.68,0,0,1,713.467,333.3Z"/><path class="cls-2" d="M734.124,338.811a7.387,7.387,0,0,1-5.763-2.377,8.752,8.752,0,0,1-2.149-6.107V318.838H729.1v11.489a6.2,6.2,0,0,0,1.426,4.224,4.954,4.954,0,0,0,3.938,1.635,6.166,6.166,0,0,0,4.394-1.75,5.735,5.735,0,0,0,1.845-4.337V318.838H743.6V338.05h-2.891v-2.7a6.68,6.68,0,0,1-2.759,2.53A8.228,8.228,0,0,1,734.124,338.811Z"/><path class="cls-2" d="M594.869,367.724V355.74h2.892V383.7h-2.816v-3.31a8.956,8.956,0,0,1-7.647,4.071,9.444,9.444,0,0,1-7.114-2.93,11.206,11.206,0,0,1,0-14.855,9.415,9.415,0,0,1,7.114-2.948,8.942,8.942,0,0,1,7.571,3.994Zm-14.609,6.391a7.411,7.411,0,0,0,2.074,5.422,7.605,7.605,0,0,0,10.538-.02,8.1,8.1,0,0,0,0-10.823,7.534,7.534,0,0,0-10.538,0A7.491,7.491,0,0,0,580.26,374.115Z"/><path class="cls-2" d="M604.247,360.4a1.927,1.927,0,0,1-.553-1.427,1.862,1.862,0,0,1,.553-1.407,1.959,1.959,0,0,1,1.426-.533,1.932,1.932,0,0,1,1.427.552,1.883,1.883,0,0,1,.551,1.388,1.947,1.947,0,0,1-.551,1.407,1.9,1.9,0,0,1-1.427.571A1.924,1.924,0,0,1,604.247,360.4Zm2.872,23.3h-2.892V364.49h2.892Z"/><path class="cls-2" d="M621.156,384.463a9.154,9.154,0,0,1-6.106-2.035,6.342,6.342,0,0,1-2.378-5.155h2.816a4.035,4.035,0,0,0,1.6,3.272,6.261,6.261,0,0,0,4.07,1.293,6.414,6.414,0,0,0,3.652-.97,2.847,2.847,0,0,0,1.446-2.416,2.208,2.208,0,0,0-1.369-2.035,11.686,11.686,0,0,0-3.31-1.046q-1.939-.3-3.881-.761A7.136,7.136,0,0,1,614.4,372.9a4.354,4.354,0,0,1-1.35-3.348,5.071,5.071,0,0,1,2.131-4.166,8.3,8.3,0,0,1,5.25-1.654,9.2,9.2,0,0,1,5.877,1.844,5.7,5.7,0,0,1,2.34,4.661L625.8,370.2a3.21,3.21,0,0,0-1.54-2.739,6.7,6.7,0,0,0-3.9-1.066,5.347,5.347,0,0,0-3.177.933,2.749,2.749,0,0,0-1.312,2.3,2.179,2.179,0,0,0,1.35,2,11.4,11.4,0,0,0,3.291,1.047q1.939.381,3.9.836a7.56,7.56,0,0,1,3.31,1.636,3.941,3.941,0,0,1,1.35,3.12,5.426,5.426,0,0,1-2.244,4.432A8.881,8.881,0,0,1,621.156,384.463Z"/><path class="cls-2" d="M637.058,380.468v11.984h-2.892V364.49h2.816v3.31a8.628,8.628,0,0,1,7.684-4.07,9.358,9.358,0,0,1,7.1,2.948,11.263,11.263,0,0,1,0,14.855,9.386,9.386,0,0,1-7.1,2.93A8.489,8.489,0,0,1,637.058,380.468Zm14.609-6.353a7.48,7.48,0,0,0-2.074-5.44,7.558,7.558,0,0,0-10.538.019,8.1,8.1,0,0,0,0,10.823,7.579,7.579,0,0,0,10.538,0A7.426,7.426,0,0,0,651.667,374.115Z"/><path class="cls-2" d="M678.905,374.115a10.109,10.109,0,0,1-2.891,7.438,10.79,10.79,0,0,1-14.742,0,11.116,11.116,0,0,1,0-14.913,10.814,10.814,0,0,1,14.761,0A10.2,10.2,0,0,1,678.905,374.115Zm-5,5.535a8.426,8.426,0,0,0,0-11.07,7.438,7.438,0,0,0-10.538,0,8.426,8.426,0,0,0,0,11.07,7.438,7.438,0,0,0,10.538,0Z"/><path class="cls-2" d="M691.382,384.463a9.153,9.153,0,0,1-6.1-2.035,6.339,6.339,0,0,1-2.378-5.155h2.815a4.035,4.035,0,0,0,1.6,3.272,6.264,6.264,0,0,0,4.07,1.293,6.42,6.42,0,0,0,3.653-.97,2.849,2.849,0,0,0,1.446-2.416,2.207,2.207,0,0,0-1.37-2.035,11.665,11.665,0,0,0-3.31-1.046q-1.94-.3-3.881-.761a7.133,7.133,0,0,1-3.29-1.712,4.354,4.354,0,0,1-1.35-3.348,5.07,5.07,0,0,1,2.13-4.166,8.3,8.3,0,0,1,5.25-1.654,9.2,9.2,0,0,1,5.877,1.844,5.7,5.7,0,0,1,2.341,4.661l-2.854-.038a3.209,3.209,0,0,0-1.541-2.739,6.7,6.7,0,0,0-3.9-1.066,5.35,5.35,0,0,0-3.177.933,2.749,2.749,0,0,0-1.312,2.3,2.182,2.182,0,0,0,1.35,2,11.412,11.412,0,0,0,3.292,1.047q1.94.381,3.9.836a7.544,7.544,0,0,1,3.31,1.636,3.941,3.941,0,0,1,1.351,3.12,5.424,5.424,0,0,1-2.245,4.432A8.879,8.879,0,0,1,691.382,384.463Z"/><path class="cls-2" d="M704.868,360.4a1.937,1.937,0,0,1-.551-1.427,1.872,1.872,0,0,1,.551-1.407,1.963,1.963,0,0,1,1.427-.533,1.93,1.93,0,0,1,1.427.552,1.883,1.883,0,0,1,.552,1.388,1.948,1.948,0,0,1-.552,1.407,1.9,1.9,0,0,1-1.427.571A1.928,1.928,0,0,1,704.868,360.4Zm2.873,23.3H704.85V364.49h2.891Z"/><path class="cls-2" d="M715.844,378.947v-12.06h-3.157v-2.4h3.271l.418-4.489h2.359v4.489h4.983v2.4h-4.983v11.945a3.186,3.186,0,0,0,.8,2.264,2.941,2.941,0,0,0,2.169.894,7.769,7.769,0,0,0,2.321-.38v2.4a10.276,10.276,0,0,1-3.043.457,4.85,4.85,0,0,1-3.748-1.5A5.676,5.676,0,0,1,715.844,378.947Z"/><path class="cls-2" d="M729.444,360.4a1.93,1.93,0,0,1-.552-1.427,1.865,1.865,0,0,1,.552-1.407,1.963,1.963,0,0,1,1.426-.533,1.934,1.934,0,0,1,1.428.552,1.882,1.882,0,0,1,.55,1.388,1.947,1.947,0,0,1-.55,1.407,1.9,1.9,0,0,1-1.428.571A1.927,1.927,0,0,1,729.444,360.4Zm2.873,23.3h-2.891V364.49h2.891Z"/><path class="cls-2" d="M752.859,364.49h3.121L748.561,383.7h-4.07l-7.457-19.212h3.119l6.353,16.891Z"/><path class="cls-2" d="M778.691,374.115a10.1,10.1,0,0,1-2.891,7.438,10.79,10.79,0,0,1-14.742,0,11.116,11.116,0,0,1,0-14.913,10.814,10.814,0,0,1,14.761,0A10.2,10.2,0,0,1,778.691,374.115Zm-5,5.535a8.426,8.426,0,0,0,0-11.07,7.438,7.438,0,0,0-10.538,0,8.426,8.426,0,0,0,0,11.07,7.438,7.438,0,0,0,10.538,0Z"/><path class="cls-2" d="M783.256,382.1a1.853,1.853,0,0,1,.571-1.388,2.093,2.093,0,0,1,2.833,0,1.883,1.883,0,0,1,.553,1.388,1.979,1.979,0,1,1-3.957,0Zm.418-18.184v-7.038h3.2v7.038l-.684,11.755h-1.863Z"/></svg>